<svg xmlns="http://www.w3.org/2000/svg" xmlns:xlink="http://www.w3.org/1999/xlink" width="0" height="0" style="display:none;"><symbol viewBox="0 0 24 24" id="ims-icon-font-actor-line">
  <path d="m 12.173828,1.0342626 c -2.5817547,0 -4.722656,2.0641661 -4.7226561,4.6191406 0,2.2051733 1.5948099,4.0454397 3.6914061,4.5078128 v 1.46875 H 7.4882812 c -0.5302198,0 -0.9570312,0.426811 -0.9570312,0.957031 v 0.113282 c 0,0.53022 0.4268114,0.957031 0.9570312,0.957031 h 3.6542968 v 2.08789 c -0.0045,0.0074 -0.0093,0.01587 -0.01367,0.02344 L 7.8359375,21.471763 C 7.5708275,21.930947 7.728316,22.513294 8.1875,22.778404 l 0.097656,0.05859 c 0.4591833,0.265113 1.043484,0.107625 1.308594,-0.351559 l 2.574219,-4.457031 2.490234,4.3125 c 0.26511,0.459184 0.847457,0.614719 1.306641,0.349609 l 0.09961,-0.05664 c 0.459184,-0.26511 0.616672,-0.847456 0.351563,-1.30664 L 13.171875,15.706138 V 13.65731 h 3.339844 c 0.53022,0 0.957031,-0.426811 0.957031,-0.957031 v -0.113282 c 0,-0.53022 -0.426811,-0.957031 -0.957031,-0.957031 h -3.339844 v -1.462891 c 2.113207,-0.4499816 3.724609,-2.2966809 3.724609,-4.5136718 0,-2.5549746 -2.140901,-4.6191407 -4.722656,-4.6191406 z m 0,2.0039062 c 1.529453,0 2.720703,1.1739942 2.720703,2.6152344 0,1.4412403 -1.19125,2.6171876 -2.720703,2.6171875 -1.529453,0 -2.720703,-1.1759473 -2.720703,-2.6171875 0,-1.4412402 1.19125,-2.6152344 2.720703,-2.6152344 z"></path>
</symbol><symbol viewBox="0 0 24 24" id="ims-icon-font-block-link">
  <path fill="none" d="M0 0h24v24H0z" id="path2"></path>
  <path id="path4" d="M 8,2 4.0200259,1.9882164 C 3.463249,1.986568 3.0020531,2.5688411 3.0019531,3.1216005 L 3,21 c 0,0.556299 0.4497899,1 1.0058594,1 5.3217095,-9.42e-4 10.6434146,-0.0016 15.9651196,0.0048 0.552299,0 0.99911,-0.447702 1,-1 L 21,3 C 21.00089,2.4477213 20.552299,2 20,2 Z m 6.085817,2.2962019 c 1.411839,0 2.823703,0.5404462 3.900917,1.6176475 2.154422,2.1544001 2.154423,5.6474106 0,7.8018336 l -1.113791,1.113791 -2.150675,-1.559307 0.819431,-0.816779 c 1.130184,-1.130185 1.130184,-2.9643087 0,-4.0945039 -1.130183,-1.130202 -2.961667,-1.130202 -4.091852,0 l -0.819431,0.8194304 c 0,0 -1.3544445,-1.6818421 -1.5593065,-2.150675 C 9.3817763,6.5712764 10.1849,5.9138494 10.1849,5.9138494 11.262116,4.8366481 12.673977,4.2962019 14.085817,4.2962019 Z M 14.0593,8.76197 15.191654,9.8545443 9.5245839,15.322723 8.3895787,14.230148 Z M 6.8435295,9.2578713 c 0.4563638,0.258886 2.1506754,1.5566537 2.1506755,1.5566537 l -0.8194313,0.819432 c -1.1301955,1.130183 -1.1301955,2.961611 0,4.091852 1.1301956,1.130185 2.9616673,1.130185 4.0918523,0 l 0.819432,-0.81678 1.559305,2.148025 -1.116441,1.116441 c -2.154346,2.154346 -5.6474336,2.154345 -7.8018344,0 -2.1544008,-2.154425 -2.1544008,-5.647472 0,-7.801834 0,0 0.7463758,-0.7858614 1.1164419,-1.1137897 z"></path>
  <path fill="none" d="M0 0h24v24H0z" id="path6"></path>
</symbol><symbol viewBox="0 0 24 24" id="ims-icon-font-group-line">
  <path d="M 4 3 C 3.44772 3 3 3.44772 3 4 L 3 4.953125 L 4.9765625 4.953125 L 4.9765625 3 L 4 3 z M 7.0234375 3 L 7.0234375 4.953125 L 9.0039062 4.953125 L 9.0039062 3 L 7.0234375 3 z M 11.050781 3 L 11.050781 4.953125 L 13.087891 4.953125 L 13.087891 3 L 11.050781 3 z M 15.132812 3 L 15.132812 4.953125 L 17.115234 4.953125 L 17.115234 3 L 15.132812 3 z M 19.162109 3 L 19.162109 4.953125 L 21 4.953125 L 21 4 C 21 3.44772 20.5523 3 20 3 L 19.162109 3 z M 3 7 L 3 8.9824219 L 4.9765625 8.9824219 L 4.9765625 7 L 3 7 z M 19.162109 7 L 19.162109 8.9824219 L 21 8.9824219 L 21 7 L 19.162109 7 z M 3 11.027344 L 3 13.064453 L 4.9765625 13.064453 L 4.9765625 11.027344 L 3 11.027344 z M 19.162109 11.027344 L 19.162109 13.064453 L 21 13.064453 L 21 11.027344 L 19.162109 11.027344 z M 3 15.111328 L 3 17.091797 L 4.9765625 17.091797 L 4.9765625 15.111328 L 3 15.111328 z M 19.162109 15.111328 L 19.162109 17.091797 L 21 17.091797 L 21 15.111328 L 19.162109 15.111328 z M 3 19.138672 L 3 20 C 3 20.5523 3.44772 21 4 21 L 4.9765625 21 L 4.9765625 19.138672 L 3 19.138672 z M 7.0234375 19.138672 L 7.0234375 21 L 9.0039062 21 L 9.0039062 19.138672 L 7.0234375 19.138672 z M 11.050781 19.138672 L 11.050781 21 L 13.087891 21 L 13.087891 19.138672 L 11.050781 19.138672 z M 15.132812 19.138672 L 15.132812 21 L 17.115234 21 L 17.115234 19.138672 L 15.132812 19.138672 z M 19.162109 19.138672 L 19.162109 21 L 20 21 C 20.5523 21 21 20.5523 21 20 L 21 19.138672 L 19.162109 19.138672 z "></path>

</symbol><symbol viewBox="0 0 24 24" id="ims-icon-font-hourglass-fill-question">
  <path fill="none" d="M0 0h24v24H0z" id="path2"></path>
  <path id="path4" d="M 4 2 L 4 4 L 6 4 L 6 6 C 6 7.6154252 6.816013 8.9145758 7.84375 9.9765625 C 8.5466679 10.70289 9.4024543 11.372003 10.269531 12 C 9.4024543 12.627997 8.5466679 13.297138 7.84375 14.023438 C 6.816013 15.085432 6 16.384606 6 18 L 6 20 L 4 20 L 4 22 L 11.451172 22 C 10.179382 20.744705 9.3886719 19.003194 9.3886719 17.083984 C 9.3886719 16.715584 9.4185419 16.353145 9.4746094 16 L 8.7714844 16 C 8.9202438 15.8064 9.0902306 15.611462 9.28125 15.414062 C 9.4170755 15.273698 9.5625023 15.135581 9.7128906 14.998047 C 10.568055 12.31206 13.024945 10.327413 15.951172 10.179688 C 16.020057 10.11219 16.089956 10.045066 16.15625 9.9765625 C 17.183947 8.9145758 18 7.6154252 18 6 L 18 4 L 20 4 L 20 2 L 4 2 z M 8 4 L 16 4 L 16 6 C 16 6.6851379 15.739513 7.3349921 15.228516 8 L 8.7714844 8 C 8.2604359 7.3349921 8 6.6851379 8 6 L 8 4 z M 16.439453 12.064453 A 4.9497476 4.9497476 0 0 0 11.490234 17.015625 A 4.9497476 4.9497476 0 0 0 16.439453 21.964844 A 4.9497476 4.9497476 0 0 0 21.390625 17.015625 A 4.9497476 4.9497476 0 0 0 16.439453 12.064453 z M 16.613281 12.847656 C 17.113053 12.847656 17.523584 12.914123 17.84375 13.046875 C 18.171725 13.179627 18.429773 13.345796 18.617188 13.548828 C 18.804601 13.751861 18.931673 13.97472 19.001953 14.216797 C 19.080042 14.458873 19.119141 14.689553 19.119141 14.908203 C 19.119141 15.126853 19.083952 15.330164 19.013672 15.517578 C 18.951199 15.697184 18.871045 15.865306 18.769531 16.021484 C 18.668015 16.177663 18.550721 16.326236 18.417969 16.466797 C 18.285217 16.607357 18.156193 16.740292 18.03125 16.865234 C 17.937543 16.958942 17.839797 17.060597 17.738281 17.169922 C 17.636765 17.271438 17.542929 17.380913 17.457031 17.498047 C 17.378942 17.615181 17.312475 17.738342 17.257812 17.871094 C 17.203153 17.996036 17.175781 18.125061 17.175781 18.257812 L 17.175781 18.398438 C 17.175781 18.460911 17.179693 18.515649 17.1875 18.5625 L 15.640625 18.5625 C 15.625005 18.484411 15.613275 18.398394 15.605469 18.304688 L 15.605469 18.046875 C 15.605469 17.828225 15.63284 17.634687 15.6875 17.462891 C 15.74216 17.283285 15.812537 17.119073 15.898438 16.970703 C 15.992145 16.814525 16.09771 16.669861 16.214844 16.537109 C 16.331978 16.404358 16.453182 16.275333 16.578125 16.150391 C 16.75773 15.970785 16.921943 15.794843 17.070312 15.623047 C 17.218682 15.443442 17.292969 15.240131 17.292969 15.013672 C 17.292969 14.826258 17.218682 14.665955 17.070312 14.533203 C 16.929752 14.400451 16.718622 14.333984 16.4375 14.333984 C 16.156379 14.333984 15.890511 14.369173 15.640625 14.439453 C 15.390739 14.509733 15.113141 14.623118 14.808594 14.779297 L 14.318359 13.455078 C 14.622908 13.259855 14.980658 13.113235 15.394531 13.011719 C 15.808404 12.902394 16.215026 12.847656 16.613281 12.847656 z M 16.4375 19.148438 C 16.718622 19.148438 16.96885 19.242273 17.1875 19.429688 C 17.413958 19.617102 17.527344 19.88297 17.527344 20.226562 C 17.527344 20.570155 17.413958 20.836024 17.1875 21.023438 C 16.96885 21.210852 16.718622 21.304688 16.4375 21.304688 C 16.156379 21.304688 15.90224 21.210852 15.675781 21.023438 C 15.457131 20.836024 15.347656 20.570155 15.347656 20.226562 C 15.347656 19.88297 15.457131 19.617102 15.675781 19.429688 C 15.90224 19.242273 16.156379 19.148438 16.4375 19.148438 z "></path>
</symbol><symbol viewBox="0 0 24 24" id="ims-icon-font-rhombus-line">
  <path d="M 11.359375,3.4472656 C 7.9654948,6.0488281 4.5716146,8.6503905 1.1777344,11.251953 c -0.92815179,0.776276 -0.02169,1.670446 0.6778621,2.109456 3.1679261,2.428358 6.3358523,4.856717 9.5037785,7.285075 0.90985,0.580075 1.578034,-0.34893 2.258212,-0.796642 3.048044,-2.336015 6.096088,-4.67203 9.144132,-7.008045 0.840017,-0.657098 0.162242,-1.610914 -0.542328,-2.005483 C 19.005636,8.3732977 15.79188,5.9102816 12.578125,3.4472656 L 11.96875,3.2405842 Z m 0.609375,2.0566406 c 2.845703,2.1809896 5.691406,4.3619792 8.537109,6.5429688 -2.845703,2.18099 -5.691406,4.361979 -8.537109,6.542969 C 9.1236979,16.408854 6.2786459,14.227865 3.4335938,12.046875 6.2786459,9.8658854 9.1236979,7.6848958 11.96875,5.5039062 Z"></path>
</symbol><symbol viewBox="0 0 24 24" id="ims-icon-font-state-end">
  <path d="M 12 5 C 8.134005 5 5 8.134005 5 12 C 5 15.86596 8.134005 19 12 19 C 15.86596 19 19 15.86596 19 12 C 19 8.134005 15.86596 5 12 5 z M 12 6.890625 C 14.810106 6.8906255 17.109375 9.1898946 17.109375 12 C 17.109375 14.810105 14.810106 17.109375 12 17.109375 C 9.1898935 17.109376 6.8906248 14.810106 6.890625 12 C 6.8906249 9.1898938 9.1898935 6.8906243 12 6.890625 z M 12 8.890625 C 10.270774 8.8906246 8.8906249 10.270775 8.890625 12 C 8.8906249 13.729226 10.270774 15.109375 12 15.109375 C 13.729226 15.109375 15.109375 13.729225 15.109375 12 C 15.109375 10.270775 13.729226 8.8906253 12 8.890625 z "></path>
</symbol><symbol viewBox="0 0 24 24" id="ims-icon-font-state-start">
  <path d="m 12,19 c 3.86596,0 7,-3.13404 7,-7 0,-3.865995 -3.13404,-7 -7,-7 -3.865995,0 -7,3.134005 -7,7 0,3.86596 3.134005,7 7,7 z"></path>
</symbol><symbol viewBox="0 0 24 24" id="ims-icon-font-ungroup-line">
  <path d="M 4 3 C 3.44772 3 3 3.44772 3 4 L 3 4.953125 L 4.9765625 4.953125 L 4.9765625 3 L 4 3 z M 7.0234375 3 L 7.0234375 4.953125 L 9.0039062 4.953125 L 9.0039062 3 L 7.0234375 3 z M 11.050781 3 L 11.050781 4.953125 L 13.087891 4.953125 L 13.087891 3 L 11.050781 3 z M 15.132812 3 L 15.132812 4.953125 L 17.115234 4.953125 L 17.115234 3 L 15.132812 3 z M 19.162109 3 L 19.162109 4.953125 L 21 4.953125 L 21 4 C 21 3.44772 20.5523 3 20 3 L 19.162109 3 z M 8.0566406 6.8652344 C 7.8010215 6.8652344 7.5435248 6.9642877 7.3476562 7.1601562 L 7.1601562 7.3476562 C 6.7684191 7.7393934 6.7684191 8.3719347 7.1601562 8.7636719 L 10.480469 12.083984 L 7.1601562 15.404297 C 6.7684191 15.796034 6.7684191 16.426622 7.1601562 16.818359 L 7.3476562 17.007812 C 7.7393934 17.39955 8.3719347 17.39955 8.7636719 17.007812 L 12.083984 13.6875 L 15.404297 17.007812 C 15.796034 17.39955 16.426622 17.39955 16.818359 17.007812 L 17.007812 16.818359 C 17.39955 16.426622 17.39955 15.796034 17.007812 15.404297 L 13.6875 12.083984 L 17.007812 8.7636719 C 17.39955 8.3719347 17.39955 7.7393934 17.007812 7.3476562 L 16.818359 7.1601562 C 16.426622 6.7684191 15.796034 6.7684191 15.404297 7.1601562 L 12.083984 10.480469 L 8.7636719 7.1601562 C 8.5678033 6.9642877 8.3122597 6.8652344 8.0566406 6.8652344 z M 3 7 L 3 8.9824219 L 4.9765625 8.9824219 L 4.9765625 7 L 3 7 z M 19.162109 7 L 19.162109 8.9824219 L 21 8.9824219 L 21 7 L 19.162109 7 z M 3 11.027344 L 3 13.064453 L 4.9765625 13.064453 L 4.9765625 11.027344 L 3 11.027344 z M 19.162109 11.027344 L 19.162109 13.064453 L 21 13.064453 L 21 11.027344 L 19.162109 11.027344 z M 3 15.111328 L 3 17.091797 L 4.9765625 17.091797 L 4.9765625 15.111328 L 3 15.111328 z M 19.162109 15.111328 L 19.162109 17.091797 L 21 17.091797 L 21 15.111328 L 19.162109 15.111328 z M 3 19.138672 L 3 20 C 3 20.5523 3.44772 21 4 21 L 4.9765625 21 L 4.9765625 19.138672 L 3 19.138672 z M 7.0234375 19.138672 L 7.0234375 21 L 9.0039062 21 L 9.0039062 19.138672 L 7.0234375 19.138672 z M 11.050781 19.138672 L 11.050781 21 L 13.087891 21 L 13.087891 19.138672 L 11.050781 19.138672 z M 15.132812 19.138672 L 15.132812 21 L 17.115234 21 L 17.115234 19.138672 L 15.132812 19.138672 z M 19.162109 19.138672 L 19.162109 21 L 20 21 C 20.5523 21 21 20.5523 21 20 L 21 19.138672 L 19.162109 19.138672 z "></path>
</symbol></svg>