<svg
   viewBox="0 0 24 24"
   fill="currentColor"
   version="1.1"
   xmlns="http://www.w3.org/2000/svg"
   xmlns:svg="http://www.w3.org/2000/svg">
  <path
     d="m 12.173828,1.0342626 c -2.5817547,0 -4.722656,2.0641661 -4.7226561,4.6191406 0,2.2051733 1.5948099,4.0454397 3.6914061,4.5078128 v 1.46875 H 7.4882812 c -0.5302198,0 -0.9570312,0.426811 -0.9570312,0.957031 v 0.113282 c 0,0.53022 0.4268114,0.957031 0.9570312,0.957031 h 3.6542968 v 2.08789 c -0.0045,0.0074 -0.0093,0.01587 -0.01367,0.02344 L 7.8359375,21.471763 C 7.5708275,21.930947 7.728316,22.513294 8.1875,22.778404 l 0.097656,0.05859 c 0.4591833,0.265113 1.043484,0.107625 1.308594,-0.351559 l 2.574219,-4.457031 2.490234,4.3125 c 0.26511,0.459184 0.847457,0.614719 1.306641,0.349609 l 0.09961,-0.05664 c 0.459184,-0.26511 0.616672,-0.847456 0.351563,-1.30664 L 13.171875,15.706138 V 13.65731 h 3.339844 c 0.53022,0 0.957031,-0.426811 0.957031,-0.957031 v -0.113282 c 0,-0.53022 -0.426811,-0.957031 -0.957031,-0.957031 h -3.339844 v -1.462891 c 2.113207,-0.4499816 3.724609,-2.2966809 3.724609,-4.5136718 0,-2.5549746 -2.140901,-4.6191407 -4.722656,-4.6191406 z m 0,2.0039062 c 1.529453,0 2.720703,1.1739942 2.720703,2.6152344 0,1.4412403 -1.19125,2.6171876 -2.720703,2.6171875 -1.529453,0 -2.720703,-1.1759473 -2.720703,-2.6171875 0,-1.4412402 1.19125,-2.6152344 2.720703,-2.6152344 z" />
</svg>
