<svg
   viewBox="0 0 24 24"
   fill="currentColor"
   version="1.1"
   id="svg10"
   xmlns="http://www.w3.org/2000/svg"
   xmlns:svg="http://www.w3.org/2000/svg">
  <path
     fill="none"
     d="M0 0h24v24H0z"
     id="path2" />
  <path
     id="path4"
     d="M 8,2 4.0200259,1.9882164 C 3.463249,1.986568 3.0020531,2.5688411 3.0019531,3.1216005 L 3,21 c 0,0.556299 0.4497899,1 1.0058594,1 5.3217095,-9.42e-4 10.6434146,-0.0016 15.9651196,0.0048 0.552299,0 0.99911,-0.447702 1,-1 L 21,3 C 21.00089,2.4477213 20.552299,2 20,2 Z m 6.085817,2.2962019 c 1.411839,0 2.823703,0.5404462 3.900917,1.6176475 2.154422,2.1544001 2.154423,5.6474106 0,7.8018336 l -1.113791,1.113791 -2.150675,-1.559307 0.819431,-0.816779 c 1.130184,-1.130185 1.130184,-2.9643087 0,-4.0945039 -1.130183,-1.130202 -2.961667,-1.130202 -4.091852,0 l -0.819431,0.8194304 c 0,0 -1.3544445,-1.6818421 -1.5593065,-2.150675 C 9.3817763,6.5712764 10.1849,5.9138494 10.1849,5.9138494 11.262116,4.8366481 12.673977,4.2962019 14.085817,4.2962019 Z M 14.0593,8.76197 15.191654,9.8545443 9.5245839,15.322723 8.3895787,14.230148 Z M 6.8435295,9.2578713 c 0.4563638,0.258886 2.1506754,1.5566537 2.1506755,1.5566537 l -0.8194313,0.819432 c -1.1301955,1.130183 -1.1301955,2.961611 0,4.091852 1.1301956,1.130185 2.9616673,1.130185 4.0918523,0 l 0.819432,-0.81678 1.559305,2.148025 -1.116441,1.116441 c -2.154346,2.154346 -5.6474336,2.154345 -7.8018344,0 -2.1544008,-2.154425 -2.1544008,-5.647472 0,-7.801834 0,0 0.7463758,-0.7858614 1.1164419,-1.1137897 z" />
  <path
     fill="none"
     d="M0 0h24v24H0z"
     id="path6" />
</svg>
