<svg
   viewBox="0 0 24 24"
   fill="currentColor"
   version="1.1"
   xmlns="http://www.w3.org/2000/svg"
   xmlns:svg="http://www.w3.org/2000/svg">
  <path
     d="M 4 3 C 3.44772 3 3 3.44772 3 4 L 3 4.953125 L 4.9765625 4.953125 L 4.9765625 3 L 4 3 z M 7.0234375 3 L 7.0234375 4.953125 L 9.0039062 4.953125 L 9.0039062 3 L 7.0234375 3 z M 11.050781 3 L 11.050781 4.953125 L 13.087891 4.953125 L 13.087891 3 L 11.050781 3 z M 15.132812 3 L 15.132812 4.953125 L 17.115234 4.953125 L 17.115234 3 L 15.132812 3 z M 19.162109 3 L 19.162109 4.953125 L 21 4.953125 L 21 4 C 21 3.44772 20.5523 3 20 3 L 19.162109 3 z M 3 7 L 3 8.9824219 L 4.9765625 8.9824219 L 4.9765625 7 L 3 7 z M 19.162109 7 L 19.162109 8.9824219 L 21 8.9824219 L 21 7 L 19.162109 7 z M 3 11.027344 L 3 13.064453 L 4.9765625 13.064453 L 4.9765625 11.027344 L 3 11.027344 z M 19.162109 11.027344 L 19.162109 13.064453 L 21 13.064453 L 21 11.027344 L 19.162109 11.027344 z M 3 15.111328 L 3 17.091797 L 4.9765625 17.091797 L 4.9765625 15.111328 L 3 15.111328 z M 19.162109 15.111328 L 19.162109 17.091797 L 21 17.091797 L 21 15.111328 L 19.162109 15.111328 z M 3 19.138672 L 3 20 C 3 20.5523 3.44772 21 4 21 L 4.9765625 21 L 4.9765625 19.138672 L 3 19.138672 z M 7.0234375 19.138672 L 7.0234375 21 L 9.0039062 21 L 9.0039062 19.138672 L 7.0234375 19.138672 z M 11.050781 19.138672 L 11.050781 21 L 13.087891 21 L 13.087891 19.138672 L 11.050781 19.138672 z M 15.132812 19.138672 L 15.132812 21 L 17.115234 21 L 17.115234 19.138672 L 15.132812 19.138672 z M 19.162109 19.138672 L 19.162109 21 L 20 21 C 20.5523 21 21 20.5523 21 20 L 21 19.138672 L 19.162109 19.138672 z " />

</svg>
