<svg
   viewBox="0 0 24 24"
   fill="currentColor"
   version="1.1"
   xmlns="http://www.w3.org/2000/svg"
   xmlns:svg="http://www.w3.org/2000/svg">
  <path
     fill="none"
     d="M0 0h24v24H0z"
     id="path2" />
  <path
     id="path4"
     d="M 4 2 L 4 4 L 6 4 L 6 6 C 6 7.6154252 6.816013 8.9145758 7.84375 9.9765625 C 8.5466679 10.70289 9.4024543 11.372003 10.269531 12 C 9.4024543 12.627997 8.5466679 13.297138 7.84375 14.023438 C 6.816013 15.085432 6 16.384606 6 18 L 6 20 L 4 20 L 4 22 L 11.451172 22 C 10.179382 20.744705 9.3886719 19.003194 9.3886719 17.083984 C 9.3886719 16.715584 9.4185419 16.353145 9.4746094 16 L 8.7714844 16 C 8.9202438 15.8064 9.0902306 15.611462 9.28125 15.414062 C 9.4170755 15.273698 9.5625023 15.135581 9.7128906 14.998047 C 10.568055 12.31206 13.024945 10.327413 15.951172 10.179688 C 16.020057 10.11219 16.089956 10.045066 16.15625 9.9765625 C 17.183947 8.9145758 18 7.6154252 18 6 L 18 4 L 20 4 L 20 2 L 4 2 z M 8 4 L 16 4 L 16 6 C 16 6.6851379 15.739513 7.3349921 15.228516 8 L 8.7714844 8 C 8.2604359 7.3349921 8 6.6851379 8 6 L 8 4 z M 16.439453 12.064453 A 4.9497476 4.9497476 0 0 0 11.490234 17.015625 A 4.9497476 4.9497476 0 0 0 16.439453 21.964844 A 4.9497476 4.9497476 0 0 0 21.390625 17.015625 A 4.9497476 4.9497476 0 0 0 16.439453 12.064453 z M 16.613281 12.847656 C 17.113053 12.847656 17.523584 12.914123 17.84375 13.046875 C 18.171725 13.179627 18.429773 13.345796 18.617188 13.548828 C 18.804601 13.751861 18.931673 13.97472 19.001953 14.216797 C 19.080042 14.458873 19.119141 14.689553 19.119141 14.908203 C 19.119141 15.126853 19.083952 15.330164 19.013672 15.517578 C 18.951199 15.697184 18.871045 15.865306 18.769531 16.021484 C 18.668015 16.177663 18.550721 16.326236 18.417969 16.466797 C 18.285217 16.607357 18.156193 16.740292 18.03125 16.865234 C 17.937543 16.958942 17.839797 17.060597 17.738281 17.169922 C 17.636765 17.271438 17.542929 17.380913 17.457031 17.498047 C 17.378942 17.615181 17.312475 17.738342 17.257812 17.871094 C 17.203153 17.996036 17.175781 18.125061 17.175781 18.257812 L 17.175781 18.398438 C 17.175781 18.460911 17.179693 18.515649 17.1875 18.5625 L 15.640625 18.5625 C 15.625005 18.484411 15.613275 18.398394 15.605469 18.304688 L 15.605469 18.046875 C 15.605469 17.828225 15.63284 17.634687 15.6875 17.462891 C 15.74216 17.283285 15.812537 17.119073 15.898438 16.970703 C 15.992145 16.814525 16.09771 16.669861 16.214844 16.537109 C 16.331978 16.404358 16.453182 16.275333 16.578125 16.150391 C 16.75773 15.970785 16.921943 15.794843 17.070312 15.623047 C 17.218682 15.443442 17.292969 15.240131 17.292969 15.013672 C 17.292969 14.826258 17.218682 14.665955 17.070312 14.533203 C 16.929752 14.400451 16.718622 14.333984 16.4375 14.333984 C 16.156379 14.333984 15.890511 14.369173 15.640625 14.439453 C 15.390739 14.509733 15.113141 14.623118 14.808594 14.779297 L 14.318359 13.455078 C 14.622908 13.259855 14.980658 13.113235 15.394531 13.011719 C 15.808404 12.902394 16.215026 12.847656 16.613281 12.847656 z M 16.4375 19.148438 C 16.718622 19.148438 16.96885 19.242273 17.1875 19.429688 C 17.413958 19.617102 17.527344 19.88297 17.527344 20.226562 C 17.527344 20.570155 17.413958 20.836024 17.1875 21.023438 C 16.96885 21.210852 16.718622 21.304688 16.4375 21.304688 C 16.156379 21.304688 15.90224 21.210852 15.675781 21.023438 C 15.457131 20.836024 15.347656 20.570155 15.347656 20.226562 C 15.347656 19.88297 15.457131 19.617102 15.675781 19.429688 C 15.90224 19.242273 16.156379 19.148438 16.4375 19.148438 z " />
</svg>
