<svg
   viewBox="0 0 24 24"
   fill="currentColor"
   version="1.1"
   xmlns="http://www.w3.org/2000/svg"
   xmlns:svg="http://www.w3.org/2000/svg">
  <path
     d="M 11.359375,3.4472656 C 7.9654948,6.0488281 4.5716146,8.6503905 1.1777344,11.251953 c -0.92815179,0.776276 -0.02169,1.670446 0.6778621,2.109456 3.1679261,2.428358 6.3358523,4.856717 9.5037785,7.285075 0.90985,0.580075 1.578034,-0.34893 2.258212,-0.796642 3.048044,-2.336015 6.096088,-4.67203 9.144132,-7.008045 0.840017,-0.657098 0.162242,-1.610914 -0.542328,-2.005483 C 19.005636,8.3732977 15.79188,5.9102816 12.578125,3.4472656 L 11.96875,3.2405842 Z m 0.609375,2.0566406 c 2.845703,2.1809896 5.691406,4.3619792 8.537109,6.5429688 -2.845703,2.18099 -5.691406,4.361979 -8.537109,6.542969 C 9.1236979,16.408854 6.2786459,14.227865 3.4335938,12.046875 6.2786459,9.8658854 9.1236979,7.6848958 11.96875,5.5039062 Z"
    />
</svg>
