<svg
   viewBox="0 0 24 24"
   fill="currentColor"
   version="1.1"
   xmlns="http://www.w3.org/2000/svg">
  <path
     d="M 12 5 C 8.134005 5 5 8.134005 5 12 C 5 15.86596 8.134005 19 12 19 C 15.86596 19 19 15.86596 19 12 C 19 8.134005 15.86596 5 12 5 z M 12 6.890625 C 14.810106 6.8906255 17.109375 9.1898946 17.109375 12 C 17.109375 14.810105 14.810106 17.109375 12 17.109375 C 9.1898935 17.109376 6.8906248 14.810106 6.890625 12 C 6.8906249 9.1898938 9.1898935 6.8906243 12 6.890625 z M 12 8.890625 C 10.270774 8.8906246 8.8906249 10.270775 8.890625 12 C 8.8906249 13.729226 10.270774 15.109375 12 15.109375 C 13.729226 15.109375 15.109375 13.729225 15.109375 12 C 15.109375 10.270775 13.729226 8.8906253 12 8.890625 z " />
</svg>
